<svg xmlns="http://www.w3.org/2000/svg" viewBox="0 0 1260 660">
  <defs>
    <pattern id="grid" width="40" height="40" patternUnits="userSpaceOnUse">
      <path d="M 40 0 L 0 0 0 40" fill="none" stroke="#1e293b" stroke-width="0.5"/>
    </pattern>
    <filter id="shadow" x="-5%" y="-5%" width="115%" height="115%">
      <feDropShadow dx="0" dy="2" stdDeviation="3" flood-color="#000" flood-opacity="0.35"/>
    </filter>
  </defs>

  <style>
    @import url('https://fonts.googleapis.com/css2?family=Noto+Sans+SC:wght@400;500;700&amp;display=swap');
    text { font-family: 'Noto Sans SC', 'PingFang SC', sans-serif; }
  </style>

  <rect width="1260" height="660" fill="#0f172a"/>
  <rect width="1260" height="660" fill="url(#grid)"/>

  <text x="630" y="26" fill="#f1f5f9" font-size="16" font-weight="700" text-anchor="middle" letter-spacing="2">公司组织结构图</text>

  <!-- ===== LEVEL 3 (TOP): Sub-units y=190, h=50 ===== -->

  <!-- 生产部 → 车间组 cx=97 -->
  <g filter="url(#shadow)">
    <rect x="54" y="190" width="85" height="50" rx="7" fill="#0f172a"/>
    <rect x="54" y="190" width="85" height="50" rx="7" fill="rgba(6,78,59,0.3)" stroke="#34d399" stroke-width="1.5"/>
  </g>
  <text x="97" y="215" fill="#f1f5f9" font-size="9" font-weight="600" text-anchor="middle">车间组</text>
  <text x="97" y="230" fill="#94a3b8" font-size="7" text-anchor="middle">直接装配</text>

  <!-- 生产部 → 质量组 cx=192 -->
  <g filter="url(#shadow)">
    <rect x="149" y="190" width="85" height="50" rx="7" fill="#0f172a"/>
    <rect x="149" y="190" width="85" height="50" rx="7" fill="rgba(6,78,59,0.3)" stroke="#34d399" stroke-width="1.5"/>
  </g>
  <text x="192" y="215" fill="#f1f5f9" font-size="9" font-weight="600" text-anchor="middle">质量组</text>
  <text x="192" y="230" fill="#94a3b8" font-size="7" text-anchor="middle">检查装配质量</text>

  <!-- 生产部 → 车间后勤组 cx=287 -->
  <g filter="url(#shadow)">
    <rect x="244" y="190" width="85" height="50" rx="7" fill="#0f172a"/>
    <rect x="244" y="190" width="85" height="50" rx="7" fill="rgba(6,78,59,0.3)" stroke="#34d399" stroke-width="1.5"/>
  </g>
  <text x="287" y="213" fill="#f1f5f9" font-size="9" font-weight="600" text-anchor="middle">车间后勤组</text>
  <text x="287" y="228" fill="#fbbf24" font-size="8" font-weight="500" text-anchor="middle">谭 鹏</text>
  <text x="287" y="240" fill="#94a3b8" font-size="6" text-anchor="middle">仓管 · 采购</text>

  <!-- 综合部 → 财务 cx=372 · 姚 -->
  <rect x="339" y="190" width="65" height="50" rx="6" fill="#0f172a"/>
  <rect x="339" y="190" width="65" height="50" rx="6" fill="rgba(76,29,149,0.25)" stroke="#a78bfa" stroke-width="1.2"/>
  <text x="372" y="215" fill="#f1f5f9" font-size="9" font-weight="600" text-anchor="middle">财务</text>
  <text x="372" y="231" fill="#fbbf24" font-size="8" text-anchor="middle">姚</text>

  <!-- 综合部 → 行政 cx=447 -->
  <rect x="414" y="190" width="65" height="50" rx="6" fill="#0f172a"/>
  <rect x="414" y="190" width="65" height="50" rx="6" fill="rgba(76,29,149,0.25)" stroke="#a78bfa" stroke-width="1.2"/>
  <text x="447" y="220" fill="#f1f5f9" font-size="9" font-weight="600" text-anchor="middle">行政</text>

  <!-- 综合部 → 人事 cx=521 · 白 -->
  <rect x="488" y="190" width="65" height="50" rx="6" fill="#0f172a"/>
  <rect x="488" y="190" width="65" height="50" rx="6" fill="rgba(76,29,149,0.25)" stroke="#a78bfa" stroke-width="1.2"/>
  <text x="521" y="215" fill="#f1f5f9" font-size="9" font-weight="600" text-anchor="middle">人事</text>
  <text x="521" y="231" fill="#fbbf24" font-size="8" text-anchor="middle">白</text>

  <!-- 综合部 → 法务 cx=596 · 万 -->
  <rect x="563" y="190" width="65" height="50" rx="6" fill="#0f172a"/>
  <rect x="563" y="190" width="65" height="50" rx="6" fill="rgba(76,29,149,0.25)" stroke="#a78bfa" stroke-width="1.2"/>
  <text x="596" y="215" fill="#f1f5f9" font-size="9" font-weight="600" text-anchor="middle">法务</text>
  <text x="596" y="231" fill="#fbbf24" font-size="8" text-anchor="middle">万</text>

  <!-- 销售部 → 销售 cx=776 · 祝 -->
  <g filter="url(#shadow)">
    <rect x="731" y="190" width="90" height="50" rx="7" fill="#0f172a"/>
    <rect x="731" y="190" width="90" height="50" rx="7" fill="rgba(251,146,60,0.25)" stroke="#fb923c" stroke-width="1.5"/>
  </g>
  <text x="776" y="215" fill="#f1f5f9" font-size="10" font-weight="600" text-anchor="middle">销售</text>
  <text x="776" y="232" fill="#fb923c" font-size="8" font-weight="500" text-anchor="middle">祝</text>

  <!-- 技术部 → 3D打印 cx=973 -->
  <g filter="url(#shadow)">
    <rect x="930" y="190" width="85" height="50" rx="7" fill="#0f172a"/>
    <rect x="930" y="190" width="85" height="50" rx="7" fill="rgba(120,53,15,0.3)" stroke="#fbbf24" stroke-width="1.5"/>
  </g>
  <text x="973" y="215" fill="#f1f5f9" font-size="9" font-weight="600" text-anchor="middle">3D 打印</text>
  <text x="973" y="230" fill="#94a3b8" font-size="7" text-anchor="middle">原型制造</text>

  <!-- 技术部 → 二次开发 cx=1068 -->
  <g filter="url(#shadow)">
    <rect x="1025" y="190" width="85" height="50" rx="7" fill="#0f172a"/>
    <rect x="1025" y="190" width="85" height="50" rx="7" fill="rgba(120,53,15,0.3)" stroke="#fbbf24" stroke-width="1.5"/>
  </g>
  <text x="1068" y="213" fill="#f1f5f9" font-size="9" font-weight="600" text-anchor="middle">二次开发</text>
  <text x="1068" y="228" fill="#94a3b8" font-size="7" text-anchor="middle">调试</text>

  <!-- 技术部 → 机械工程师 cx=1163 -->
  <g filter="url(#shadow)">
    <rect x="1120" y="190" width="85" height="50" rx="7" fill="#0f172a"/>
    <rect x="1120" y="190" width="85" height="50" rx="7" fill="rgba(120,53,15,0.3)" stroke="#fbbf24" stroke-width="1.5"/>
  </g>
  <text x="1163" y="215" fill="#f1f5f9" font-size="9" font-weight="600" text-anchor="middle">机械工程师</text>
  <text x="1163" y="230" fill="#94a3b8" font-size="7" text-anchor="middle">结构设计</text>

  <!-- ===== Dept→Sub Connector bars (y=275) ===== -->
  <!-- 生产部: subs cx=97/192/287, dept cx=192 -->
  <line x1="97" y1="240" x2="97" y2="275" stroke="#475569" stroke-width="1.5"/>
  <line x1="192" y1="240" x2="192" y2="275" stroke="#475569" stroke-width="1.5"/>
  <line x1="287" y1="240" x2="287" y2="275" stroke="#475569" stroke-width="1.5"/>
  <line x1="97" y1="275" x2="287" y2="275" stroke="#475569" stroke-width="1.5"/>
  <line x1="192" y1="275" x2="192" y2="310" stroke="#475569" stroke-width="1.5"/>

  <!-- 综合部: subs cx=372/447/521/596, dept cx=484 -->
  <line x1="372" y1="240" x2="372" y2="275" stroke="#475569" stroke-width="1.5"/>
  <line x1="447" y1="240" x2="447" y2="275" stroke="#475569" stroke-width="1.5"/>
  <line x1="521" y1="240" x2="521" y2="275" stroke="#475569" stroke-width="1.5"/>
  <line x1="596" y1="240" x2="596" y2="275" stroke="#475569" stroke-width="1.5"/>
  <line x1="372" y1="275" x2="596" y2="275" stroke="#475569" stroke-width="1.5"/>
  <line x1="484" y1="275" x2="484" y2="310" stroke="#475569" stroke-width="1.5"/>

  <!-- 销售部: sub cx=776, dept cx=776 -->
  <line x1="776" y1="240" x2="776" y2="310" stroke="#475569" stroke-width="1.5"/>

  <!-- 技术部: subs cx=973/1068/1163, dept cx=1068 -->
  <line x1="973" y1="240" x2="973" y2="275" stroke="#475569" stroke-width="1.5"/>
  <line x1="1068" y1="240" x2="1068" y2="275" stroke="#475569" stroke-width="1.5"/>
  <line x1="1163" y1="240" x2="1163" y2="275" stroke="#475569" stroke-width="1.5"/>
  <line x1="973" y1="275" x2="1163" y2="275" stroke="#475569" stroke-width="1.5"/>
  <line x1="1068" y1="275" x2="1068" y2="310" stroke="#475569" stroke-width="1.5"/>

  <!-- ===== LEVEL 2: Departments y=310, h=70, w=200 ===== -->

  <!-- 生产部 cx=192 -->
  <g filter="url(#shadow)">
    <rect x="92" y="310" width="200" height="70" rx="9" fill="#0f172a"/>
    <rect x="92" y="310" width="200" height="70" rx="9" fill="rgba(6,78,59,0.4)" stroke="#34d399" stroke-width="2"/>
  </g>
  <text x="192" y="342" fill="#34d399" font-size="13" font-weight="700" text-anchor="middle">生产部</text>
  <text x="192" y="362" fill="#94a3b8" font-size="8" text-anchor="middle">装配 · 质量 · 仓储采购</text>

  <!-- 综合部 cx=484 -->
  <g filter="url(#shadow)">
    <rect x="384" y="310" width="200" height="70" rx="9" fill="#0f172a"/>
    <rect x="384" y="310" width="200" height="70" rx="9" fill="rgba(76,29,149,0.35)" stroke="#a78bfa" stroke-width="2"/>
  </g>
  <text x="484" y="337" fill="#a78bfa" font-size="13" font-weight="700" text-anchor="middle">综合部</text>
  <text x="484" y="355" fill="#c4b5fd" font-size="8" text-anchor="middle">财务 · 行政 · 人事 · 法务</text>
  <text x="484" y="371" fill="#f87171" font-size="7" text-anchor="middle">（总部直属管理）</text>

  <!-- 销售部 cx=776 -->
  <g filter="url(#shadow)">
    <rect x="676" y="310" width="200" height="70" rx="9" fill="#0f172a"/>
    <rect x="676" y="310" width="200" height="70" rx="9" fill="rgba(251,146,60,0.2)" stroke="#fb923c" stroke-width="2"/>
  </g>
  <text x="776" y="350" fill="#fb923c" font-size="13" font-weight="700" text-anchor="middle">销售部</text>

  <!-- 技术部 cx=1068 -->
  <g filter="url(#shadow)">
    <rect x="968" y="310" width="200" height="70" rx="9" fill="#0f172a"/>
    <rect x="968" y="310" width="200" height="70" rx="9" fill="rgba(120,53,15,0.35)" stroke="#fbbf24" stroke-width="2"/>
  </g>
  <text x="1068" y="342" fill="#fbbf24" font-size="13" font-weight="700" text-anchor="middle">技术部</text>
  <text x="1068" y="362" fill="#94a3b8" font-size="8" text-anchor="middle">3D打印 · 二次开发 · 调试 · 机械</text>

  <!-- ===== 厂内负责人 → Depts Connector (bar y=415) ===== -->
  <line x1="192" y1="380" x2="192" y2="415" stroke="#475569" stroke-width="1.5"/>
  <line x1="484" y1="380" x2="484" y2="415" stroke="#475569" stroke-width="1.5"/>
  <line x1="776" y1="380" x2="776" y2="415" stroke="#475569" stroke-width="1.5"/>
  <line x1="1068" y1="380" x2="1068" y2="415" stroke="#475569" stroke-width="1.5"/>
  <line x1="192" y1="415" x2="1068" y2="415" stroke="#475569" stroke-width="1.5"/>
  <line x1="630" y1="415" x2="630" y2="440" stroke="#475569" stroke-width="2"/>

  <!-- ===== LEVEL 1: 厂内负责人 y=440 ===== -->
  <g filter="url(#shadow)">
    <rect x="500" y="440" width="260" height="62" rx="10" fill="#0f172a"/>
    <rect x="500" y="440" width="260" height="62" rx="10" fill="rgba(8,51,68,0.5)" stroke="#22d3ee" stroke-width="2"/>
  </g>
  <text x="630" y="466" fill="#22d3ee" font-size="14" font-weight="700" text-anchor="middle">厂内负责人</text>
  <text x="630" y="489" fill="#e2e8f0" font-size="11" font-weight="500" text-anchor="middle">何 冲</text>

  <!-- ===== 法人 → 厂内负责人 Connector (bar y=525) ===== -->
  <line x1="630" y1="502" x2="630" y2="525" stroke="#475569" stroke-width="2"/>
  <line x1="530" y1="525" x2="730" y2="525" stroke="#475569" stroke-width="2"/>
  <line x1="630" y1="525" x2="630" y2="548" stroke="#475569" stroke-width="2"/>

  <!-- ===== LEVEL 0 (BOTTOM): 法人 y=548 ===== -->
  <g filter="url(#shadow)">
    <rect x="530" y="548" width="200" height="52" rx="10" fill="#0f172a"/>
    <rect x="530" y="548" width="200" height="52" rx="10" fill="rgba(136,19,55,0.4)" stroke="#fb7185" stroke-width="2"/>
  </g>
  <text x="630" y="572" fill="#fb7185" font-size="14" font-weight="700" text-anchor="middle">法 人</text>
  <text x="630" y="591" fill="#e2e8f0" font-size="10" font-weight="500" text-anchor="middle">祝鹤槐</text>

  <!-- ===== LEGEND ===== -->
  <g transform="translate(310, 635)">
    <rect x="0" y="0" width="640" height="22" rx="6" fill="rgba(15,23,42,0.8)" stroke="#1e293b" stroke-width="1"/>
    <rect x="10" y="5" width="12" height="12" rx="3" fill="#fb7185" opacity="0.8"/>
    <text x="26" y="15" fill="#94a3b8" font-size="8">法人</text>
    <rect x="56" y="5" width="12" height="12" rx="3" fill="#22d3ee" opacity="0.8"/>
    <text x="72" y="15" fill="#94a3b8" font-size="8">厂内负责人</text>
    <rect x="146" y="5" width="12" height="12" rx="3" fill="#34d399" opacity="0.8"/>
    <text x="162" y="15" fill="#94a3b8" font-size="8">生产</text>
    <rect x="196" y="5" width="12" height="12" rx="3" fill="#a78bfa" opacity="0.8"/>
    <text x="212" y="15" fill="#94a3b8" font-size="8">综合</text>
    <rect x="248" y="5" width="12" height="12" rx="3" fill="#fb923c" opacity="0.8"/>
    <text x="264" y="15" fill="#94a3b8" font-size="8">销售</text>
    <rect x="298" y="5" width="12" height="12" rx="3" fill="#fbbf24" opacity="0.8"/>
    <text x="314" y="15" fill="#94a3b8" font-size="8">技术</text>
    <rect x="348" y="5" width="12" height="12" rx="3" fill="rgba(0,0,0,0)"/>
    <text x="360" y="15" fill="#64748b" font-size="8">— 总部高管（姚/白/万）</text>
  </g>
</svg>
